<svg xmlns="http://www.w3.org/2000/svg" xmlns:xlink="http://www.w3.org/1999/xlink" width="250" zoomAndPan="magnify" viewBox="0 0 187.5 187.499992" height="250" preserveAspectRatio="xMidYMid meet" version="1.0"><defs><clipPath id="f10bccb3aa"><path d="M 43 4.1875 L 161 4.1875 L 161 115 L 43 115 Z M 43 4.1875 " clip-rule="nonzero"/></clipPath><clipPath id="65e90eb2e6"><path d="M 24.390625 102 L 85 102 L 85 182.214844 L 24.390625 182.214844 Z M 24.390625 102 " clip-rule="nonzero"/></clipPath><clipPath id="431ca33dbd"><path d="M 24.390625 167 L 46 167 L 46 178 L 24.390625 178 Z M 24.390625 167 " clip-rule="nonzero"/></clipPath></defs><g clip-path="url(#f10bccb3aa)"><path fill="#000000" d="M 103.339844 114.671875 C 95.867188 114.671875 88.222656 113.394531 80.808594 110.792969 C 78.820312 110.09375 76.855469 109.265625 74.976562 108.347656 C 69.136719 105.878906 62.023438 99.597656 61.71875 99.324219 C 51.929688 90.453125 45.585938 78.777344 43.835938 66.457031 C 41.929688 52.980469 45.90625 38.554688 54.742188 26.867188 C 63.558594 15.226562 76.335938 7.425781 89.808594 5.460938 C 98.5 4.1875 107.71875 4.773438 117.207031 7.207031 C 127.601562 9.855469 141.957031 15.582031 151.335938 27.804688 C 159.542969 38.496094 162.761719 53.183594 159.929688 67.078125 C 157 81.527344 148.777344 95.417969 138.476562 103.34375 C 128.792969 110.800781 116.34375 114.664062 103.339844 114.671875 Z M 98.917969 7.269531 C 95.941406 7.269531 93.023438 7.484375 90.167969 7.898438 C 62.960938 11.859375 42.449219 39.066406 46.285156 66.121094 C 47.953125 77.875 54.019531 89.019531 63.375 97.5 C 63.433594 97.550781 70.503906 103.804688 75.976562 106.097656 L 76.042969 106.125 C 77.84375 107.011719 79.726562 107.796875 81.636719 108.472656 C 101.183594 115.34375 122.386719 112.632812 136.980469 101.398438 C 146.832031 93.820312 154.699219 80.480469 157.519531 66.597656 C 160.210938 53.382812 157.160156 39.445312 149.382812 29.300781 C 140.429688 17.636719 126.613281 12.144531 116.589844 9.585938 C 110.554688 8.046875 104.640625 7.269531 98.917969 7.269531 Z M 98.917969 7.269531 " fill-opacity="1" fill-rule="nonzero"/></g><path fill="#000000" d="M 103.105469 104.269531 C 97.058594 104.269531 90.859375 103.242188 84.859375 101.128906 C 69.195312 95.621094 57.15625 81.183594 54.890625 65.1875 C 53.339844 54.257812 56.5625 42.558594 63.734375 33.085938 C 70.875 23.640625 81.234375 17.3125 92.164062 15.722656 C 99.203125 14.699219 106.664062 15.175781 114.347656 17.132812 C 122.769531 19.277344 134.398438 23.925781 142 33.828125 C 148.660156 42.515625 151.269531 54.425781 148.980469 65.699219 C 146.605469 77.398438 139.9375 88.660156 131.589844 95.089844 C 123.742188 101.136719 113.644531 104.269531 103.105469 104.269531 Z M 99.53125 17.65625 C 97.148438 17.65625 94.808594 17.824219 92.511719 18.160156 C 70.691406 21.339844 54.253906 43.15625 57.324219 64.84375 C 59.464844 79.957031 70.863281 93.605469 85.679688 98.816406 C 101.367188 104.328125 118.382812 102.160156 130.085938 93.148438 C 137.988281 87.070312 144.304688 76.363281 146.570312 65.214844 C 148.71875 54.632812 146.285156 43.457031 140.046875 35.332031 C 132.878906 25.984375 121.78125 21.574219 113.734375 19.519531 C 108.886719 18.277344 104.128906 17.65625 99.53125 17.65625 Z M 99.53125 17.65625 " fill-opacity="1" fill-rule="nonzero"/><g clip-path="url(#65e90eb2e6)"><path fill="#000000" d="M 41.425781 182.214844 C 38.894531 182.214844 35.957031 181.34375 32.558594 179.597656 C 29.378906 177.964844 25.980469 175.800781 24.882812 172.148438 C 24.570312 171.089844 24.464844 169.957031 24.574219 168.789062 C 24.707031 167.402344 25.152344 165.917969 25.929688 164.253906 C 26.542969 162.945312 27.28125 161.703125 27.859375 160.769531 C 40.472656 140.25 54.613281 120.84375 68.011719 102.738281 C 68.414062 102.1875 69.1875 102.078125 69.726562 102.480469 C 70.277344 102.882812 70.394531 103.65625 69.984375 104.199219 C 56.613281 122.269531 42.515625 141.617188 29.949219 162.054688 C 29.40625 162.9375 28.714844 164.105469 28.148438 165.296875 C 27.5 166.691406 27.125 167.914062 27.015625 169.023438 C 26.929688 169.890625 27.003906 170.679688 27.230469 171.441406 C 28.0625 174.207031 30.949219 176.011719 33.667969 177.40625 C 38.601562 179.941406 42.25 180.410156 44.832031 178.855469 C 46.71875 177.707031 47.886719 175.5 48.910156 173.558594 C 51.386719 168.871094 53.859375 164.179688 56.328125 159.492188 L 81.855469 111.078125 C 82.039062 110.726562 82.28125 110.324219 82.621094 109.777344 C 82.988281 109.203125 83.742188 109.03125 84.320312 109.390625 C 84.894531 109.757812 85.0625 110.507812 84.707031 111.085938 C 84.398438 111.574219 84.1875 111.933594 84.035156 112.226562 L 58.5 160.636719 C 56.03125 165.328125 53.558594 170.015625 51.082031 174.707031 C 49.960938 176.824219 48.574219 179.460938 46.101562 180.957031 C 44.734375 181.796875 43.179688 182.214844 41.425781 182.214844 Z M 41.425781 182.214844 " fill-opacity="1" fill-rule="nonzero"/></g><path fill="#000000" d="M 42.140625 162.222656 C 41.957031 162.222656 41.777344 162.1875 41.601562 162.097656 L 32.039062 157.4375 C 31.425781 157.136719 31.175781 156.410156 31.476562 155.792969 C 31.777344 155.179688 32.515625 154.933594 33.121094 155.230469 L 42.683594 159.890625 C 43.296875 160.191406 43.542969 160.921875 43.246094 161.535156 C 43.039062 161.964844 42.601562 162.222656 42.140625 162.222656 Z M 42.140625 162.222656 " fill-opacity="1" fill-rule="nonzero"/><path fill="#000000" d="M 44.875 168.285156 C 44.730469 168.285156 44.574219 168.253906 44.421875 168.195312 C 43.207031 167.722656 42.0625 167.285156 40.964844 166.859375 C 36.828125 165.277344 33.246094 163.910156 29.109375 161.585938 C 28.515625 161.25 28.304688 160.507812 28.640625 159.914062 C 28.976562 159.324219 29.722656 159.109375 30.3125 159.445312 C 34.296875 161.683594 37.792969 163.019531 41.839844 164.566406 C 42.945312 164.992188 44.101562 165.429688 45.320312 165.910156 C 45.949219 166.160156 46.265625 166.875 46.015625 167.503906 C 45.824219 167.984375 45.363281 168.285156 44.875 168.285156 Z M 44.875 168.285156 " fill-opacity="1" fill-rule="nonzero"/><path fill="#000000" d="M 47.289062 174.265625 C 47.175781 174.265625 47.0625 174.253906 46.949219 174.214844 C 38.480469 171.789062 29.816406 167.570312 26.484375 165.867188 C 25.875 165.558594 25.636719 164.816406 25.949219 164.214844 C 26.257812 163.609375 27.003906 163.375 27.601562 163.683594 C 30.871094 165.355469 39.355469 169.488281 47.625 171.855469 C 48.273438 172.046875 48.652344 172.726562 48.464844 173.375 C 48.316406 173.917969 47.828125 174.265625 47.289062 174.265625 Z M 47.289062 174.265625 " fill-opacity="1" fill-rule="nonzero"/><g clip-path="url(#431ca33dbd)"><path fill="#000000" d="M 43.910156 177.539062 C 43.769531 177.539062 43.632812 177.515625 43.492188 177.464844 C 42.574219 177.136719 41.578125 176.792969 40.53125 176.4375 C 35.570312 174.71875 29.394531 172.585938 25.152344 169.949219 C 24.574219 169.59375 24.398438 168.832031 24.757812 168.253906 C 25.117188 167.679688 25.875 167.503906 26.453125 167.859375 C 30.460938 170.359375 36.492188 172.441406 41.335938 174.113281 C 42.390625 174.480469 43.390625 174.820312 44.320312 175.15625 C 44.960938 175.382812 45.292969 176.09375 45.066406 176.730469 C 44.890625 177.234375 44.414062 177.539062 43.910156 177.539062 Z M 43.910156 177.539062 " fill-opacity="1" fill-rule="nonzero"/></g><path fill="#000000" d="M 66.839844 59.578125 C 66.183594 59.578125 65.539062 59.378906 65 58.910156 C 63.550781 57.664062 64.003906 55.582031 64.152344 54.894531 C 65.789062 47.355469 70.75 38.890625 77.117188 32.804688 C 81.453125 28.65625 86.621094 26.136719 91.664062 25.707031 C 94.039062 25.503906 95.824219 26.320312 96.425781 27.882812 C 97.199219 29.890625 95.847656 31.855469 92.726562 33.265625 C 82.996094 37.664062 75.085938 45.835938 71.015625 55.699219 L 70.957031 55.835938 C 70.578125 56.765625 70.136719 57.816406 69.261719 58.621094 C 68.632812 59.203125 67.734375 59.578125 66.839844 59.578125 Z M 92.335938 28.140625 C 92.183594 28.140625 92.023438 28.148438 91.871094 28.160156 C 87.390625 28.539062 82.753906 30.820312 78.820312 34.582031 C 72.792969 40.351562 68.089844 48.335938 66.554688 55.414062 C 66.285156 56.65625 66.527344 56.984375 66.605469 57.050781 C 66.773438 57.195312 67.28125 57.109375 67.609375 56.808594 C 68.082031 56.378906 68.375 55.660156 68.691406 54.902344 L 68.75 54.761719 C 73.054688 44.332031 81.425781 35.675781 91.714844 31.023438 C 93.0625 30.417969 94.390625 29.445312 94.128906 28.761719 C 93.960938 28.320312 93.148438 28.140625 92.335938 28.140625 Z M 92.335938 28.140625 " fill-opacity="1" fill-rule="nonzero"/><path fill="#000000" d="M 66.949219 75.089844 C 66.769531 75.089844 66.578125 75.074219 66.386719 75.039062 C 65.296875 74.84375 64.339844 74.074219 63.761719 72.9375 C 63.316406 72.058594 63.164062 71.132812 63.03125 70.320312 C 62.902344 69.53125 62.601562 63.988281 65.101562 62.695312 C 65.890625 62.285156 67.175781 62.148438 68.835938 63.785156 C 70.085938 65.019531 70.371094 66.769531 70.578125 68.042969 C 70.773438 69.261719 71.015625 70.789062 70.53125 72.265625 C 70.042969 73.738281 68.617188 75.089844 66.949219 75.089844 Z M 66.210938 64.894531 C 65.605469 65.339844 65.21875 68.429688 65.46875 69.917969 C 65.578125 70.589844 65.695312 71.285156 65.964844 71.824219 C 66.183594 72.257812 66.527344 72.570312 66.839844 72.621094 C 67.316406 72.710938 67.972656 72.175781 68.199219 71.496094 C 68.5 70.589844 68.316406 69.445312 68.15625 68.4375 C 67.960938 67.214844 67.746094 66.148438 67.117188 65.535156 C 66.585938 65.019531 66.292969 64.910156 66.210938 64.894531 Z M 66.210938 64.894531 " fill-opacity="1" fill-rule="nonzero"/></svg>